<svg xmlns="http://www.w3.org/2000/svg" viewBox="0 0 512 512">
  <defs>
    <linearGradient id="bg" x1="0" y1="0" x2="1" y2="1">
      <stop offset="0%" stop-color="#dcc8a1"/>
      <stop offset="100%" stop-color="#b79f76"/>
    </linearGradient>
    <radialGradient id="light" cx="0.3" cy="0.2" r="0.9">
      <stop offset="0%" stop-color="#ffffff" stop-opacity="0.28"/>
      <stop offset="100%" stop-color="#ffffff" stop-opacity="0"/>
    </radialGradient>
  </defs>
  <rect width="512" height="512" fill="url(#bg)"/>
  <rect width="512" height="512" fill="url(#light)"/>
  <g fill="none" stroke="#f0dfba" stroke-opacity="0.5" stroke-width="11" stroke-linecap="round">
    <path d="M24 172 C 112 124, 210 126, 298 176 C 376 220, 440 226, 488 214"/>
    <path d="M12 264 C 110 214, 198 216, 280 260 C 358 302, 430 308, 502 286"/>
    <path d="M30 356 C 120 308, 206 308, 284 352 C 352 392, 422 396, 488 378"/>
  </g>
  <g fill="#a98c60" fill-opacity="0.36">
    <ellipse cx="88" cy="214" rx="26" ry="8"/>
    <ellipse cx="190" cy="240" rx="20" ry="7"/>
    <ellipse cx="304" cy="216" rx="24" ry="8"/>
    <ellipse cx="404" cy="246" rx="21" ry="7"/>
    <ellipse cx="142" cy="336" rx="24" ry="8"/>
    <ellipse cx="262" cy="356" rx="22" ry="7"/>
    <ellipse cx="378" cy="334" rx="24" ry="8"/>
  </g>
</svg>
