<svg xmlns="http://www.w3.org/2000/svg" viewBox="0 0 512 512">
  <defs>
    <linearGradient id="bg" x1="0" y1="0" x2="1" y2="1">
      <stop offset="0%" stop-color="#d8a48a"/>
      <stop offset="100%" stop-color="#8e4f3a"/>
    </linearGradient>
    <radialGradient id="light" cx="0.38" cy="0.24" r="0.88">
      <stop offset="0%" stop-color="#ffffff" stop-opacity="0.3"/>
      <stop offset="100%" stop-color="#ffffff" stop-opacity="0"/>
    </radialGradient>
    <linearGradient id="brickA" x1="0" y1="0" x2="1" y2="1">
      <stop offset="0%" stop-color="#cf7658"/>
      <stop offset="100%" stop-color="#b65c44"/>
    </linearGradient>
    <linearGradient id="brickB" x1="0" y1="0" x2="1" y2="1">
      <stop offset="0%" stop-color="#bf664d"/>
      <stop offset="100%" stop-color="#9f4d39"/>
    </linearGradient>
  </defs>
  <rect width="512" height="512" fill="url(#bg)"/>
  <rect width="512" height="512" fill="url(#light)"/>
  <g fill="#7b4331" fill-opacity="0.3">
    <path d="M0 356 Q 70 316 144 344 T 304 340 T 512 356 L 512 512 L 0 512 Z"/>
    <path d="M0 430 Q 110 396 210 420 T 512 430 L 512 512 L 0 512 Z"/>
  </g>
  <g fill="#e9dac9" fill-opacity="0.22">
    <rect x="72" y="266" width="70" height="26" rx="4"/>
    <rect x="152" y="266" width="70" height="26" rx="4"/>
    <rect x="232" y="266" width="70" height="26" rx="4"/>
    <rect x="312" y="266" width="70" height="26" rx="4"/>
    <rect x="392" y="266" width="50" height="26" rx="4"/>
  </g>
  <g stroke="#7c3f2f" stroke-opacity="0.36" stroke-width="2">
    <rect x="80" y="276" width="64" height="30" rx="4" fill="url(#brickA)"/>
    <rect x="152" y="276" width="64" height="30" rx="4" fill="url(#brickB)"/>
    <rect x="224" y="276" width="64" height="30" rx="4" fill="url(#brickA)"/>
    <rect x="296" y="276" width="64" height="30" rx="4" fill="url(#brickB)"/>
    <rect x="368" y="276" width="64" height="30" rx="4" fill="url(#brickA)"/>

    <rect x="116" y="240" width="64" height="30" rx="4" fill="url(#brickB)"/>
    <rect x="188" y="240" width="64" height="30" rx="4" fill="url(#brickA)"/>
    <rect x="260" y="240" width="64" height="30" rx="4" fill="url(#brickB)"/>
    <rect x="332" y="240" width="64" height="30" rx="4" fill="url(#brickA)"/>

    <rect x="152" y="204" width="64" height="30" rx="4" fill="url(#brickA)"/>
    <rect x="224" y="204" width="64" height="30" rx="4" fill="url(#brickB)"/>
    <rect x="296" y="204" width="64" height="30" rx="4" fill="url(#brickA)"/>
  </g>
  <g fill="#8d4f3a" fill-opacity="0.5">
    <polygon points="56,414 114,382 160,422 108,454"/>
    <polygon points="338,418 402,382 460,424 392,458"/>
    <polygon points="202,452 252,422 308,458 246,486"/>
  </g>
</svg>
