<svg xmlns="http://www.w3.org/2000/svg" viewBox="0 0 512 512">
  <defs>
    <linearGradient id="sand" x1="0" y1="0" x2="1" y2="1">
      <stop offset="0%" stop-color="#cdb78d"/>
      <stop offset="100%" stop-color="#9c845d"/>
    </linearGradient>
    <radialGradient id="sun" cx="0.28" cy="0.18" r="0.9">
      <stop offset="0%" stop-color="#ffffff" stop-opacity="0.28"/>
      <stop offset="100%" stop-color="#ffffff" stop-opacity="0"/>
    </radialGradient>
    <radialGradient id="water" cx="0.5" cy="0.5" r="0.4">
      <stop offset="0%" stop-color="#b0f3ff"/>
      <stop offset="45%" stop-color="#49bfd8"/>
      <stop offset="100%" stop-color="#1c7c98"/>
    </radialGradient>
    <radialGradient id="shore" cx="0.5" cy="0.55" r="0.58">
      <stop offset="0%" stop-color="#f0e1bf" stop-opacity="0.1"/>
      <stop offset="100%" stop-color="#8c7448" stop-opacity="0.7"/>
    </radialGradient>
  </defs>
  <rect width="512" height="512" fill="url(#sand)"/>
  <rect width="512" height="512" fill="url(#sun)"/>

  <g fill="none" stroke="#e8d8b0" stroke-opacity="0.36" stroke-width="9" stroke-linecap="round">
    <path d="M20 164 C 118 120, 208 120, 294 164 C 368 202, 432 204, 490 188"/>
    <path d="M8 250 C 102 210, 196 210, 282 252 C 356 294, 430 298, 502 282"/>
    <path d="M32 344 C 124 306, 212 308, 292 352 C 356 392, 426 394, 486 378"/>
  </g>

  <ellipse cx="256" cy="288" rx="206" ry="148" fill="url(#shore)"/>
  <ellipse cx="256" cy="286" rx="182" ry="130" fill="url(#water)"/>
  <ellipse cx="256" cy="280" rx="140" ry="96" fill="#c8f8ff" fill-opacity="0.26"/>

  <g fill-opacity="0.8">
    <polygon points="86,246 126,226 166,246 126,266" fill="#5f9254"/>
    <polygon points="354,222 394,202 434,222 394,242" fill="#7d8899"/>
    <polygon points="334,360 374,340 414,360 374,380" fill="#b86a4a"/>
    <polygon points="90,346 130,326 170,346 130,366" fill="#d8b454"/>
    <polygon points="210,178 250,158 290,178 250,198" fill="#2f6d45"/>
    <polygon points="220,396 260,376 300,396 260,416" fill="#b7df70"/>
  </g>

  <g fill="#3f7c49" fill-opacity="0.9">
    <rect x="132" y="190" width="8" height="42" rx="3"/>
    <rect x="370" y="196" width="8" height="40" rx="3"/>
    <rect x="350" y="338" width="8" height="40" rx="3"/>
    <rect x="144" y="326" width="8" height="40" rx="3"/>
  </g>
  <g fill="#77b86e" fill-opacity="0.9">
    <ellipse cx="132" cy="184" rx="21" ry="8" transform="rotate(-34 132 184)"/>
    <ellipse cx="152" cy="180" rx="18" ry="7" transform="rotate(26 152 180)"/>
    <ellipse cx="370" cy="190" rx="20" ry="8" transform="rotate(-26 370 190)"/>
    <ellipse cx="389" cy="186" rx="17" ry="7" transform="rotate(28 389 186)"/>
    <ellipse cx="350" cy="332" rx="20" ry="8" transform="rotate(-24 350 332)"/>
    <ellipse cx="369" cy="328" rx="17" ry="7" transform="rotate(26 369 328)"/>
    <ellipse cx="144" cy="320" rx="20" ry="8" transform="rotate(-26 144 320)"/>
    <ellipse cx="163" cy="316" rx="17" ry="7" transform="rotate(28 163 316)"/>
  </g>
</svg>
