<svg xmlns="http://www.w3.org/2000/svg" viewBox="0 0 512 512">
  <defs>
    <linearGradient id="bg" x1="0" y1="0" x2="1" y2="1">
      <stop offset="0%" stop-color="#d9ee9b"/>
      <stop offset="100%" stop-color="#9ac95f"/>
    </linearGradient>
    <radialGradient id="mist" cx="0.45" cy="0.2" r="0.9">
      <stop offset="0%" stop-color="#ffffff" stop-opacity="0.36"/>
      <stop offset="100%" stop-color="#ffffff" stop-opacity="0"/>
    </radialGradient>
  </defs>
  <rect width="512" height="512" fill="url(#bg)"/>
  <rect width="512" height="512" fill="url(#mist)"/>
  <g fill="none" stroke="#f1ffc8" stroke-opacity="0.58" stroke-width="10" stroke-linecap="round">
    <path d="M20 390 Q 92 320 162 386"/>
    <path d="M154 404 Q 250 320 332 392"/>
    <path d="M302 388 Q 386 326 492 390"/>
    <path d="M40 294 Q 108 236 196 286"/>
    <path d="M234 286 Q 322 220 460 278"/>
  </g>
  <g fill="#fffbe0" fill-opacity="0.6">
    <circle cx="90" cy="112" r="5"/>
    <circle cx="128" cy="88" r="4"/>
    <circle cx="176" cy="116" r="5"/>
    <circle cx="238" cy="98" r="4"/>
    <circle cx="292" cy="120" r="5"/>
    <circle cx="340" cy="96" r="4"/>
    <circle cx="390" cy="116" r="5"/>
    <circle cx="438" cy="94" r="4"/>
  </g>
</svg>
